PathFileType	4	(X/Y/Z)	D:\luciana\vassoio.trc
DataRate	CameraRate	NumFrames	NumMarkers	Units	OrigDataRate	OrigDataStartFrame	OrigNumFrames
250.00	250.00	10	20	mm	250.00	645	2051
Frame#	Time	pelvisR			Trunk1			Trunk2			Trunk3			C7			shoulder			upperArm1			upperArm2			upperArm3			elbow			forearm1			forearm2			forearm3			wrist1			wrist2			wrist3			Object1			Hand			Object2			Object3			
		X1	Y1	Z1	X2	Y2	Z2	X3	Y3	Z3	X4	Y4	Z4	X5	Y5	Z5	X6	Y6	Z6	X7	Y7	Z7	X8	Y8	Z8	X9	Y9	Z9	X10	Y10	Z10	X11	Y11	Z11	X12	Y12	Z12	X13	Y13	Z13	X14	Y14	Z14	X15	Y15	Z15	X16	Y16	Z16	X17	Y17	Z17	X18	Y18	Z18	X19	Y19	Z19	X20	Y20	Z20	

644	2.576000	1706.913590	666.762531	734.775066	1484.519839	875.539064	644.155443	1545.880437	821.913362	638.092399	1456.016183	784.679115	635.531187	1548.385620	1131.927609	827.233970	1721.831083	1057.246923	774.954438	1800.967693	890.914023	869.685888	1855.201960	911.767840	820.684075	1812.950253	908.460379	748.016357	1858.930588	781.483412	786.244750	1900.426745	751.353502	709.312975	1849.356055	696.206927	739.106059	1857.305169	813.442409	703.205585	1867.160201	785.975933	574.852228	1839.522481	710.709214	581.829131	1810.703278	829.240680	595.161557	1554.676652	731.403112	468.198240	1830.856681	747.689545	485.488802	1634.944797	714.779735	377.632022	1491.309881	714.914441	379.344165	
645	2.580000	1706.916571	666.774392	734.781623	1484.504938	875.563860	644.149542	1545.839548	821.915269	638.091207	1455.979824	784.681439	635.537386	1548.353434	1131.919503	827.207208	1721.773148	1057.309151	774.959505	1800.932407	891.064525	869.709969	1855.190635	912.006259	820.769429	1812.991142	908.683300	748.058617	1859.085560	781.739831	786.303759	1900.569439	751.823246	709.246993	1849.495292	696.595967	738.920987	1857.456207	813.902617	703.324497	1867.585421	786.647022	575.036585	1839.588881	711.517811	581.736982	1810.884356	830.044985	595.362127	1554.689169	732.467055	468.220532	1831.326485	748.739541	485.470295	1634.980440	715.985179	377.641112	1491.295934	716.006398	379.344165	
646	2.584000	1706.918597	666.780293	734.768629	1484.470606	875.573516	644.111991	1545.809031	821.925223	638.087153	1455.950618	784.689844	635.529220	1548.326373	1131.903768	827.188671	1721.721053	1057.362676	774.963498	1800.901651	891.221166	869.731069	1855.174065	912.237525	820.856810	1813.026786	908.900499	748.114347	1859.231830	782.001615	786.353946	1900.728226	752.301633	709.174693	1849.613070	696.956873	738.717258	1857.614040	814.378262	703.455687	1867.414594	787.579060	575.015008	1839.652300	712.286055	581.652343	1811.046481	830.847681	595.558465	1554.708123	733.563423	468.258768	1830.855131	749.747753	485.423952	1634.942055	717.080474	377.727538	1491.330385	717.167377	379.381895	
647	2.588000	1706.922293	666.784406	734.760284	1484.443545	875.590205	644.103885	1545.782328	821.946740	638.082147	1455.900550	784.707725	635.522962	1548.295021	1131.901026	827.170253	1721.667051	1057.421565	774.959385	1800.875664	891.369343	869.743705	1855.159044	912.469149	820.941031	1813.079119	909.099519	748.153448	1859.386206	782.280326	786.408901	1900.868177	752.768278	709.120989	1849.707127	697.257042	738.492668	1857.759595	814.856470	703.581393	1867.868066	788.283110	575.178802	1839.704156	713.116527	581.553340	1811.179876	831.646800	595.776558	1554.695487	734.637260	468.286455	1831.283569	750.797689	485.432088	1634.990811	718.256235	377.617806	1491.304159	718.288004	379.394561	
648	2.592000	1706.924319	666.806757	734.772444	1484.395027	875.616968	644.097447	1545.754910	821.964204	638.081074	1456.665397	784.611702	634.996653	1548.266172	1131.903768	827.142835	1721.616507	1057.478905	774.958611	1800.034523	891.461611	869.174004	1854.917288	912.536919	820.582867	1813.139558	909.312904	748.199165	1859.547257	782.553673	786.461174	1901.019216	753.225029	709.072292	1849.776745	697.498083	738.237798	1857.900739	815.312803	703.680933	1867.232800	789.352596	575.005233	1839.766264	713.958204	581.428289	1811.314821	832.444966	595.993161	1554.696083	735.695601	468.311876	1830.435514	751.759291	485.406876	1635.030985	719.407976	377.628267	1491.294980	719.388902	379.392684	
649	2.596000	1706.922531	666.812956	734.775424	1484.365702	875.632763	644.069195	1545.718193	821.981132	638.084412	1458.458066	784.386158	633.807421	1548.244715	1131.902575	827.127099	1721.567392	1057.534456	774.966359	1798.179865	891.475081	867.874384	1854.381084	912.402034	819.662869	1813.192725	909.502983	748.260140	1859.694362	782.826126	786.486626	1901.181936	753.669143	709.022999	1849.815845	697.715402	737.956762	1858.044267	815.764546	703.777134	1867.546082	790.089369	575.125456	1839.798927	714.758217	581.314564	1811.477304	833.237588	596.198201	1554.724932	736.795843	468.344599	1830.286026	752.810240	485.361516	1635.092974	720.593572	377.613932	1491.334796	720.539510	379.415542	
650	2.600000	1706.910729	666.800737	734.770834	1484.340549	875.655174	644.049942	1545.690536	821.997762	638.081253	1458.868265	784.369111	633.512080	1548.220873	1131.915689	827.116013	1721.504450	1057.593465	774.955153	1797.720790	891.607881	867.582858	1854.243398	912.537694	819.503963	1813.257217	909.717798	748.301983	1859.840393	783.104181	786.522865	1901.352525	754.129291	708.983779	1849.863529	697.938919	737.677395	1858.195901	816.210091	703.871548	1868.512630	790.606260	575.476825	1839.847326	715.525270	581.239223	1811.634779	834.034801	596.407175	1554.762840	737.880170	468.387157	1830.597281	753.893673	485.325992	1635.088921	721.716642	377.635151	1491.350532	721.721172	379.446357	
651	2.604000	1706.891298	666.808844	734.762847	1484.313726	875.690639	644.038439	1545.666695	822.021186	638.086855	1458.903313	784.395456	633.436561	1548.213720	1131.918192	827.086210	1721.446395	1057.643771	774.928570	1797.595143	891.768873	867.543221	1854.210615	912.738442	819.543362	1813.332558	909.943938	748.355329	1859.989405	783.368468	786.563754	1901.500583	754.594564	708.918095	1849.932909	698.184252	737.414837	1858.329177	816.650271	703.968525	1868.842602	791.332185	575.627804	1839.903235	716.347098	581.118703	1811.774135	834.846497	596.616745	1554.779410	738.936961	468.408883	1831.041694	754.938543	485.338569	1635.090232	722.849309	377.664089	1491.346478	722.856402	379.440486	
652	2.608000	1706.897140	666.811466	734.764874	1484.293222	875.694215	644.025445	1545.643449	822.042823	638.084769	1458.860636	784.439206	633.425295	1548.196316	1131.917357	827.068150	1721.391916	1057.689905	774.911523	1797.543406	891.936064	867.556572	1854.200840	912.955344	819.617152	1813.401461	910.149872	748.407841	1860.126853	783.608794	786.594212	1901.639462	755.063295	708.849669	1850.036502	698.469162	737.173557	1858.450770	817.092538	704.074562	1869.012475	792.158961	575.660527	1839.956164	717.177987	580.975056	1811.897755	835.636258	596.829236	1554.802418	740.023732	468.418658	1830.542445	755.961597	485.280275	1635.106564	724.013090	377.745777	1491.384506	723.995686	379.431844	
653	2.612000	1706.896663	666.821122	734.772801	1484.269381	875.709891	643.998027	1545.612931	822.062433	638.077259	1458.789706	784.477949	633.425534	1548.167706	1131.916046	827.057779	1721.348047	1057.744145	774.916768	1797.512412	892.078996	867.581487	1854.199886	913.175225	819.694877	1813.459992	910.354197	748.471498	1860.261321	783.845067	786.624610	1901.785851	755.524933	708.796382	1850.162029	698.799372	736.966312	1858.573079	817.536473	704.187453	1869.142532	792.971432	575.723290	1840.026379	717.966199	580.834985	1812.033892	836.409271	597.050130	1554.818034	741.094351	468.460351	1830.425620	756.972492	485.256135	1634.979010	725.011468	377.891123	1491.424441	725.147367	379.460186	
